# xmcd CD database file
# Copyright (C) 1997 Ti Kan
#
# Track frame offsets:
#  205
#  15725
#  33765
#  53345
#  73125
#  88290
#  109232
#  119212
#  133342
#  150277
#  171895
#  188117
#  205997
#
# Disc length: 3000 seconds
#
# Revision: 1
# Processed by: cddbd v1.4b41PL1 Copyright (c) Steve Scherf et al.
# Submitted via: CDWizzard Release:4.31
#
DISCID=b60bb60d
DTITLE=Robert Ward - Rhythm Of The People
DYEAR=1900
DGENRE=
TTITLE0=A Good Man
TTITLE1=The Real Deal
TTITLE2=Say What You Mean
TTITLE3=White Fox
TTITLE4=You Can't Stop My Lovin' Now
TTITLE5=Children Of The World
TTITLE6=All Proud Races
TTITLE7=I Do What I Want
TTITLE8=What A Friend We Have In Jesus
TTITLE9=Some Things
TTITLE10=Soap Opera Blues
TTITLE11=I Found A Love
TTITLE12=Twiggs County
EXTD=
EXTT0=
EXTT1=
EXTT2=
EXTT3=
EXTT4=
EXTT5=
EXTT6=
EXTT7=
EXTT8=
EXTT9=
EXTT10=
EXTT11=
EXTT12=
PLAYORDER=
